<svg xmlns="http://www.w3.org/2000/svg" viewBox="0 0 1200 380" role="img" aria-label="IMCO Investment Management Corporation of Ontario">
  <g transform="translate(12 20)">
    <path d="M188 0c-18 72-58 110-127 110C43 110 24 107 3 101 22 36 82 0 188 0z" fill="#0aa6b5"/>
    <path d="M0 172c72-18 110 25 110 126 0 18-4 37-10 58C35 336 0 276 0 172z" fill="#0aa6b5"/>
    <path d="M336 172c-72-18-110 25-110 126 0 18 4 37 10 58 65-20 100-80 100-184z" fill="#0aa6b5"/>
    <path d="M188 336c-18-72-58-110-127-110-18 0-37 4-58 10 22 65 82 100 185 100z" fill="#34b34a"/>
    <path d="M225 24c64 24 101 83 111 177-72 18-110-25-110-126 0-17-1-33-1-51z" fill="#34b34a"/>
    <path d="M99 312c25-64 84-101 178-111 18 72-25 110-126 110-17 0-34 1-52 1z" fill="#34b34a"/>
  </g>
  <text x="430" y="155" fill="#0065a8" font-family="Georgia, 'Times New Roman', serif" font-size="126" font-weight="700">IMCO</text>
  <text x="430" y="242" fill="#0065a8" font-family="Georgia, 'Times New Roman', serif" font-size="48" font-weight="700">Investment Management</text>
  <text x="430" y="306" fill="#0065a8" font-family="Georgia, 'Times New Roman', serif" font-size="48" font-weight="700">Corporation of Ontario</text>
</svg>
