<?xml version="1.0" encoding="UTF-8"?>
<svg id="Layer_1" xmlns="http://www.w3.org/2000/svg" version="1.1" viewBox="0 0 396.53 99.17">
  <!-- Generator: Adobe Illustrator 29.8.2, SVG Export Plug-In . SVG Version: 2.1.1 Build 3)  -->
  <defs>
    <style>
      .st0 {
        fill: #fff;
      }
    </style>
  </defs>
  <path class="st0" d="M270.67,62.72c-2.81,5.67-7.99,9.71-14.49,11.44-2.25.52-4.63.79-7.17.79-4.7,0-8.92-1.08-12.64-3.23-3.72-2.16-6.66-5.16-8.82-9.02-2.16-3.85-3.23-8.26-3.23-13.23s1.08-9.51,3.23-13.23c2.16-3.72,5.1-6.66,8.82-8.82s7.94-3.23,12.64-3.23c3.23,0,6.24.43,9.04,1.29,5.5,2.03,9.92,5.88,12.43,10.95l21.12-12.21c-1.59-2.95-3.54-5.71-5.79-8.23l.04-.04c-4.58-5.1-10-9.02-16.27-11.76-3.23-1.41-6.63-2.46-10.17-3.14-3.36-.69-6.85-1.05-10.44-1.05-6.55,0-12.7,1.12-18.31,3.15-.35.12-.69.26-1.03.39-.38.15-.75.29-1.12.45-.56.23-1.12.47-1.67.73l-.27.12c-1.2.55-2.38,1.15-3.53,1.8-7.78,4.38-13.89,10.29-18.33,17.74-4.44,7.45-6.66,15.88-6.66,25.28s2.22,17.64,6.66,25.09c4.21,7.06,9.89,12.71,17.04,16.95,7.72,4.73,16.99,7.44,27.22,7.44,14.97,0,28.33-6.29,37.26-16.34h.01c2.19-2.48,4.12-5.18,5.73-8.06l-21.31-12.02h0Z"/>
  <rect class="st0" y=".17" width="26.55" height="98.98"/>
  <path class="st0" d="M170.89,4.53C165.12,1.51,158.62,0,151.38,0s-13.81,1.58-19.71,4.73c-4.7,2.51-8.66,5.84-11.91,9.96-3.01-4.23-6.81-7.63-11.42-10.16C102.84,1.51,96.74,0,90.04,0,82.93,0,76.56,1.51,70.93,4.53c-3.02,1.62-5.7,3.61-8.04,5.94V.17h-26.35v98.98h26.35v-57.32c0-3.75.8-6.97,2.41-9.65s3.82-4.73,6.64-6.13c2.82-1.41,5.96-2.11,9.45-2.11,5.23,0,9.62,1.58,13.17,4.73s5.33,7.54,5.33,13.17v57.32h26.35v-57.32c0-3.75.8-6.97,2.41-9.65s3.85-4.73,6.74-6.13c2.88-1.41,6-2.11,9.35-2.11,5.23,0,9.62,1.58,13.17,4.73s5.33,7.54,5.33,13.17v57.32h26.35v-61.54c0-7.77-1.68-14.48-5.03-20.11-3.35-5.63-7.91-9.96-13.68-12.97v-.02Z"/>
  <path class="st0" d="M389.85,24.35c-4.46-7.4-10.52-13.3-18.18-17.69-7.67-4.39-16.35-6.59-26.05-6.59s-18.02,2.2-25.75,6.59-13.83,10.29-18.28,17.69c-4.46,7.41-6.68,15.76-6.68,25.06s2.26,17.73,6.78,25.26c4.52,7.54,10.61,13.5,18.28,17.89s16.28,6.59,25.85,6.59,18.18-2.19,25.85-6.59c7.67-4.39,13.73-10.35,18.18-17.89,4.45-7.53,6.68-15.95,6.68-25.26s-2.23-17.66-6.68-25.06h0ZM367.14,62.88c-2.03,3.87-4.91,6.88-8.65,9.04-3.73,2.16-8.03,3.24-12.88,3.24s-8.91-1.08-12.58-3.24c-3.67-2.16-6.55-5.18-8.65-9.04s-3.15-8.29-3.15-13.27,1.05-9.37,3.15-13.17,4.98-6.78,8.65-8.94c3.67-2.16,7.86-3.24,12.58-3.24s9.11,1.08,12.78,3.24,6.55,5.14,8.65,8.94c2.09,3.8,3.15,8.19,3.15,13.17s-1.02,9.4-3.05,13.27Z"/>
</svg>