<?xml version="1.0" encoding="utf-8"?>
<!-- Generator: Adobe Illustrator 24.2.1, SVG Export Plug-In . SVG Version: 6.00 Build 0)  -->
<svg version="1.2" baseProfile="tiny" id="レイヤー_1"
	 xmlns="http://www.w3.org/2000/svg" xmlns:xlink="http://www.w3.org/1999/xlink" x="0px" y="0px" width="172px" height="50px"
	 viewBox="0 0 172 50" overflow="visible" xml:space="preserve">
<path d="M18.7,34.46c-2.5,0-5.19,1.54-5.19,4.93c0,4.74,3.96,5.11,5.17,5.11c1.22,0,5.18-0.37,5.18-5.11
	C23.87,36,21.19,34.46,18.7,34.46 M18.7,42.71c-1.39,0-3.02-0.86-3.02-3.31c0-1.87,1.21-3.12,3-3.12c1.8,0,3.02,1.25,3.02,3.12
	C21.7,41.85,20.08,42.71,18.7,42.71z"/>
<polyline points="27.86,44.32 29.92,44.32 29.92,36.36 33.17,36.36 33.17,34.65 24.61,34.65 24.61,36.36 27.86,36.36 27.86,44.32 
	"/>
<path d="M39.23,34.46c-2.5,0-5.18,1.54-5.18,4.93c0,4.74,3.96,5.11,5.17,5.11c1.22,0,5.19-0.37,5.19-5.11
	C44.4,36,41.72,34.46,39.23,34.46 M39.23,42.71c-1.39,0-3.02-0.86-3.02-3.31c0-2.16,1.51-3.12,3-3.12c1.81,0,3.02,1.25,3.02,3.12
	C42.23,41.85,40.62,42.71,39.23,42.71z"/>
<path d="M52.27,40.67c1.37-0.33,2.29-1.47,2.29-2.85c0-2.63-2.16-3.18-3.97-3.18h-4.5v9.67h2.06v-3.18h1.8l2.31,3.18h2.57
	l-2.78-3.59L52.27,40.67 M50.17,39.43h-1.99v-3.07h1.94c1.52,0,2.26,0.48,2.26,1.47C52.39,38.9,51.66,39.43,50.17,39.43z"/>
<path d="M66.74,42.71c-2.21,0-3.58-1.24-3.58-3.24c0-2.08,1.3-3.22,3.67-3.22c1.11,0,1.92,0.19,2.62,0.4v-1.8
	c-0.92-0.27-2.07-0.39-2.81-0.39c-2.6,0-5.64,1.31-5.64,5.02c0,3.19,2.05,5.02,5.61,5.02c0.85,0,1.91-0.11,2.86-0.31v-1.92
	c-0.6,0.18-1.58,0.43-2.68,0.44H66.74"/>
<path d="M76.16,34.46c-2.5,0-5.19,1.54-5.19,4.93c0,4.74,3.96,5.11,5.17,5.11c1.22,0,5.19-0.37,5.19-5.11
	C81.33,36,78.65,34.46,76.16,34.46 M76.16,42.71c-1.39,0-3.02-0.86-3.02-3.31c0-2.16,1.51-3.12,3-3.12c1.81,0,3.02,1.25,3.02,3.12
	C79.16,41.85,77.54,42.71,76.16,42.71z"/>
<path d="M89.47,40.67c1.37-0.33,2.29-1.47,2.29-2.85c0-2.63-2.16-3.18-3.97-3.18h-4.5v9.67h2.06v-3.18h1.8l2.31,3.18h2.57
	l-2.78-3.59L89.47,40.67 M87.38,39.43h-1.99v-3.07h1.94c1.52,0,2.26,0.48,2.26,1.47C89.59,38.9,88.87,39.43,87.38,39.43z"/>
<path d="M98.45,34.65h-4.44v9.67h2.06v-2.75h2.39c2.02,0,4.17-0.91,4.17-3.47C102.63,35.77,101.27,34.65,98.45,34.65 M98.25,39.86
	h-2.18v-3.5h2.14c1.05,0,2.26,0.19,2.26,1.68C100.46,39.64,99.35,39.86,98.25,39.86z"/>
<path d="M109.2,34.46c-2.5,0-5.19,1.54-5.19,4.93c0,4.74,3.96,5.11,5.17,5.11c1.22,0,5.19-0.37,5.19-5.11
	C114.37,36,111.69,34.46,109.2,34.46 M109.2,42.71c-1.39,0-3.02-0.86-3.02-3.31c0-1.87,1.21-3.12,3-3.12c1.8,0,3.02,1.25,3.02,3.12
	C112.21,41.85,110.59,42.71,109.2,42.71z"/>
<path d="M122.52,40.67c1.37-0.33,2.29-1.47,2.29-2.85c0-2.63-2.16-3.18-3.97-3.18h-4.5v9.67h2.06v-3.18h1.8l2.31,3.18h2.57
	l-2.78-3.59L122.52,40.67 M120.43,39.43h-1.99v-3.07h1.94c1.52,0,2.26,0.48,2.26,1.47C122.64,38.9,121.92,39.43,120.43,39.43z"/>
<path d="M129.79,34.65l-3.63,9.67h2.05l0.65-1.81h4.86l0.58,1.81h2.28l-3.7-9.67H129.79 M129.45,40.79l1.8-4.75l1.87,4.75H129.45z"
	/>
<polyline points="139.28,44.32 141.34,44.32 141.34,36.36 144.59,36.36 144.59,34.65 136.03,34.65 136.03,36.36 139.28,36.36 
	139.28,44.32 "/>
<rect x="146.61" y="34.65" width="2.06" height="9.67"/>
<path d="M155.93,34.46c-2.5,0-5.18,1.54-5.18,4.93c0,4.74,3.96,5.11,5.17,5.11c1.22,0,5.19-0.37,5.19-5.11
	C161.1,36,158.42,34.46,155.93,34.46 M155.93,42.71c-1.39,0-3.02-0.86-3.02-3.31c0-2.16,1.51-3.12,3-3.12c1.8,0,3.02,1.25,3.02,3.12
	C158.93,41.85,157.31,42.71,155.93,42.71z"/>
<polyline points="169.98,41.23 165.54,34.66 163.04,34.66 163.04,44.32 165.06,44.32 165.06,37.27 169.88,44.32 172,44.32 
	172,34.66 169.98,34.66 169.98,41.23 "/>
<polyline points="2.12,34.65 0,34.65 0,44.32 2.06,44.32 2.06,38.39 5.16,44.32 6.6,44.32 9.71,38.39 9.71,44.32 11.77,44.32 
	11.77,34.65 9.65,34.65 5.88,41.66 2.12,34.65 "/>
<path d="M99.85,13.38h-11.7c-0.53,0-1.12-0.04-1.4-0.12c-1.04-0.28-1.53-1.19-1.53-2.12c0-0.8,0.44-1.77,1.55-2.11
	c0.33-0.1,0.65-0.11,1.33-0.11h16.6V5.5H87.83c-0.66,0-1.2,0.02-1.67,0.09c-2.73,0.38-4.71,2.66-4.71,5.56
	c0,2.59,1.67,5.15,4.64,5.59c0.65,0.1,1.64,0.08,1.91,0.08h11.34c0.16,0,0.73,0.01,0.88,0.03c1.35,0.19,2.05,1.23,2.05,2.39
	c0,0.98-0.6,2.1-1.93,2.34c-0.17,0.03-0.77,0.05-0.97,0.05H82.02v3.46h17.62c0.21,0,1.19-0.01,1.39-0.03
	c3.29-0.3,5.01-2.99,5.01-5.84c0-2.51-1.56-5.45-4.74-5.77C100.63,13.37,100.08,13.38,99.85,13.38z"/>
<path d="M66.36,13.38h-11.7c-0.53,0-1.12-0.04-1.4-0.12c-1.04-0.28-1.53-1.19-1.53-2.12c0-0.8,0.44-1.77,1.55-2.11
	c0.33-0.1,0.65-0.11,1.33-0.11h16.6V5.5H54.34c-0.66,0-1.2,0.02-1.67,0.09c-2.73,0.38-4.71,2.66-4.71,5.56
	c0,2.59,1.67,5.15,4.64,5.59c0.65,0.1,1.64,0.08,1.91,0.08h11.34c0.16,0,0.73,0.01,0.88,0.03c1.35,0.19,2.05,1.23,2.05,2.39
	c0,0.98-0.6,2.1-1.93,2.34c-0.17,0.03-0.77,0.05-0.97,0.05H48.53v3.46h17.62c0.21,0,1.19-0.01,1.39-0.03
	c3.29-0.3,5.01-2.99,5.01-5.84c0-2.51-1.57-5.45-4.74-5.77C67.14,13.37,66.59,13.38,66.36,13.38z"/>
<rect x="34.83" y="5.5" width="3.73" height="19.58"/>
<polygon points="20.55,21.15 5.22,5.5 0,5.5 0,25.08 3.73,25.08 3.73,9.33 19.17,25.08 24.28,25.08 24.28,5.5 20.55,5.5 "/>
<polygon points="168.26,21.15 152.93,5.5 147.71,5.5 147.71,25.08 151.44,25.08 151.44,9.33 166.88,25.08 171.99,25.08 171.99,5.5 
	168.26,5.5 "/>
<path d="M124.37,5.5l-12.1,19.58h4.55l2.23-3.62h15.03l2.23,3.62h4.55L128.77,5.5H124.37z M120.9,18.34l5.67-9.2l5.66,9.2H120.9z"/>
</svg>
