<svg xmlns="http://www.w3.org/2000/svg" width="1280" height="760" viewBox="0 0 1280 760" role="img" aria-label="Sanitized preview of a BA consignment system">
  <rect width="1280" height="760" fill="#f6f7f4"/>
  <rect x="54" y="54" width="300" height="652" rx="30" fill="#17212b"/>
  <rect x="94" y="96" width="54" height="54" rx="14" fill="#2dd4bf"/>
  <text x="107" y="131" fill="#17212b" font-family="Arial, Helvetica, sans-serif" font-size="20" font-weight="700">BA</text>
  <text x="172" y="115" fill="#ffffff" font-family="Arial, Helvetica, sans-serif" font-size="24" font-weight="700">Consignment</text>
  <text x="172" y="145" fill="#cbd5e1" font-family="Arial, Helvetica, sans-serif" font-size="16">Store workflow</text>
  <rect x="94" y="218" width="220" height="52" rx="14" fill="#273444"/>
  <text x="124" y="251" fill="#ffffff" font-family="Arial, Helvetica, sans-serif" font-size="17">Record</text>
  <rect x="94" y="292" width="220" height="52" rx="14" fill="#273444"/>
  <text x="124" y="325" fill="#ffffff" font-family="Arial, Helvetica, sans-serif" font-size="17">Search</text>
  <rect x="94" y="366" width="220" height="52" rx="14" fill="#ffffff"/>
  <text x="124" y="399" fill="#17212b" font-family="Arial, Helvetica, sans-serif" font-size="17" font-weight="700">Admin</text>
  <rect x="402" y="54" width="824" height="652" rx="34" fill="#ffffff" stroke="#d7ded8"/>
  <text x="450" y="118" fill="#134e4a" font-family="Arial, Helvetica, sans-serif" font-size="17" font-weight="700">ADMIN</text>
  <text x="450" y="160" fill="#111827" font-family="Arial, Helvetica, sans-serif" font-size="36" font-weight="700">Submitted Records</text>
  <g font-family="Arial, Helvetica, sans-serif">
    <rect x="450" y="208" width="180" height="92" rx="20" fill="#f8fafc" stroke="#e2e8f0"/>
    <text x="478" y="245" fill="#64748b" font-size="15" font-weight="700">Total</text>
    <text x="478" y="279" fill="#111827" font-size="34" font-weight="700">Demo</text>
    <rect x="652" y="208" width="180" height="92" rx="20" fill="#f8fafc" stroke="#e2e8f0"/>
    <text x="680" y="245" fill="#64748b" font-size="15" font-weight="700">Tester</text>
    <text x="680" y="279" fill="#111827" font-size="34" font-weight="700">Flow</text>
    <rect x="854" y="208" width="180" height="92" rx="20" fill="#f8fafc" stroke="#e2e8f0"/>
    <text x="882" y="245" fill="#64748b" font-size="15" font-weight="700">Restock</text>
    <text x="882" y="279" fill="#111827" font-size="34" font-weight="700">Ready</text>
    <rect x="450" y="342" width="710" height="64" rx="18" fill="#edf2f7"/>
    <text x="480" y="381" fill="#475569" font-size="15" font-weight="700">Date</text>
    <text x="610" y="381" fill="#475569" font-size="15" font-weight="700">Type</text>
    <text x="760" y="381" fill="#475569" font-size="15" font-weight="700">Store</text>
    <text x="948" y="381" fill="#475569" font-size="15" font-weight="700">Status</text>
    <rect x="450" y="428" width="710" height="72" rx="18" fill="#ffffff" stroke="#e5e7eb"/>
    <text x="480" y="472" fill="#111827" font-size="16">2026-05</text>
    <text x="610" y="472" fill="#111827" font-size="16">Tester request</text>
    <text x="760" y="472" fill="#111827" font-size="16">Store location</text>
    <text x="948" y="472" fill="#0f766e" font-size="16" font-weight="700">Reviewed</text>
    <rect x="450" y="520" width="710" height="72" rx="18" fill="#ffffff" stroke="#e5e7eb"/>
    <text x="480" y="564" fill="#111827" font-size="16">2026-05</text>
    <text x="610" y="564" fill="#111827" font-size="16">Restock</text>
    <text x="760" y="564" fill="#111827" font-size="16">Retail counter</text>
    <text x="948" y="564" fill="#0f766e" font-size="16" font-weight="700">Exported</text>
  </g>
</svg>
