<svg xmlns="http://www.w3.org/2000/svg" width="1280" height="760" viewBox="0 0 1280 760" role="img" aria-label="Sanitized preview of a brand analysis website">
  <rect width="1280" height="760" fill="#fbfaf7"/>
  <rect x="64" y="52" width="1152" height="656" rx="34" fill="#ffffff" stroke="#dedbd2"/>
  <text x="112" y="116" fill="#1f2937" font-family="Arial, Helvetica, sans-serif" font-size="36" font-weight="700">Brand Analysis Workspace</text>
  <text x="112" y="154" fill="#6b7280" font-family="Arial, Helvetica, sans-serif" font-size="18">Inventory, sales, and PO inputs converted into planning signals</text>
  <g font-family="Arial, Helvetica, sans-serif">
    <rect x="112" y="204" width="300" height="140" rx="24" fill="#eef6f0"/>
    <text x="142" y="246" fill="#166534" font-size="18" font-weight="700">Inventory Health</text>
    <text x="142" y="291" fill="#1f2937" font-size="34" font-weight="700">Balanced</text>
    <text x="142" y="322" fill="#64748b" font-size="16">Slow / healthy / reorder groups</text>
    <rect x="490" y="204" width="300" height="140" rx="24" fill="#eef4ff"/>
    <text x="520" y="246" fill="#1d4ed8" font-size="18" font-weight="700">Sales Suggestion</text>
    <text x="520" y="291" fill="#1f2937" font-size="34" font-weight="700">Action list</text>
    <text x="520" y="322" fill="#64748b" font-size="16">Promotion and replenishment flags</text>
    <rect x="868" y="204" width="300" height="140" rx="24" fill="#fff7ed"/>
    <text x="898" y="246" fill="#c2410c" font-size="18" font-weight="700">PO Planning</text>
    <text x="898" y="291" fill="#1f2937" font-size="34" font-weight="700">Prioritized</text>
    <text x="898" y="322" fill="#64748b" font-size="16">Order timing and SKU focus</text>
    <rect x="112" y="400" width="500" height="226" rx="26" fill="#f8fafc" stroke="#e5e7eb"/>
    <text x="146" y="446" fill="#111827" font-size="22" font-weight="700">Brand Review</text>
    <rect x="146" y="480" width="398" height="18" rx="9" fill="#2563eb"/>
    <rect x="146" y="520" width="318" height="18" rx="9" fill="#22c55e"/>
    <rect x="146" y="560" width="250" height="18" rx="9" fill="#f97316"/>
    <text x="568" y="497" fill="#64748b" font-size="14">sell-through</text>
    <text x="488" y="537" fill="#64748b" font-size="14">stock status</text>
    <text x="420" y="577" fill="#64748b" font-size="14">PO gap</text>
    <rect x="668" y="400" width="500" height="226" rx="26" fill="#f8fafc" stroke="#e5e7eb"/>
    <text x="702" y="446" fill="#111827" font-size="22" font-weight="700">Recommendation Output</text>
    <circle cx="724" cy="500" r="8" fill="#2563eb"/>
    <text x="750" y="507" fill="#374151" font-size="17">Restock hero SKUs before campaign window</text>
    <circle cx="724" cy="548" r="8" fill="#22c55e"/>
    <text x="750" y="555" fill="#374151" font-size="17">Review slow-moving inventory for promotion</text>
    <circle cx="724" cy="596" r="8" fill="#f97316"/>
    <text x="750" y="603" fill="#374151" font-size="17">Align PO timing with monthly calendar</text>
  </g>
</svg>
