<svg xmlns="http://www.w3.org/2000/svg" width="1280" height="760" viewBox="0 0 1280 760" role="img" aria-label="Sanitized preview of a label information finder dashboard">
  <rect width="1280" height="760" fill="#f5f7fb"/>
  <rect x="56" y="54" width="1168" height="652" rx="34" fill="#ffffff" stroke="#d8dee8"/>
  <text x="102" y="120" fill="#111827" font-family="Arial, Helvetica, sans-serif" font-size="36" font-weight="700">Label Info Finder</text>
  <text x="102" y="158" fill="#64748b" font-family="Arial, Helvetica, sans-serif" font-size="18">Bilingual cosmetic label lookup and workbook completion workflow</text>
  <rect x="102" y="198" width="720" height="62" rx="18" fill="#eef4ff" stroke="#d8e6ff"/>
  <text x="130" y="237" fill="#2563eb" font-family="Arial, Helvetica, sans-serif" font-size="19" font-weight="700">Search by barcode, brand, or product name</text>
  <rect x="858" y="198" width="272" height="62" rx="18" fill="#111827"/>
  <text x="923" y="237" fill="#ffffff" font-family="Arial, Helvetica, sans-serif" font-size="18" font-weight="700">Export completed file</text>
  <g transform="translate(102 306)">
    <rect width="1028" height="72" rx="20" fill="#f8fafc"/>
    <text x="28" y="44" fill="#475569" font-family="Arial, Helvetica, sans-serif" font-size="16" font-weight="700">Barcode</text>
    <text x="218" y="44" fill="#475569" font-family="Arial, Helvetica, sans-serif" font-size="16" font-weight="700">Product</text>
    <text x="520" y="44" fill="#475569" font-family="Arial, Helvetica, sans-serif" font-size="16" font-weight="700">Required label fields</text>
    <text x="836" y="44" fill="#475569" font-family="Arial, Helvetica, sans-serif" font-size="16" font-weight="700">Status</text>
  </g>
  <g font-family="Arial, Helvetica, sans-serif" font-size="17">
    <rect x="102" y="398" width="1028" height="70" rx="18" fill="#ffffff" stroke="#e5e7eb"/>
    <text x="130" y="440" fill="#111827">8800********</text>
    <text x="320" y="440" fill="#111827">Hydrating serum</text>
    <text x="622" y="440" fill="#475569">INCI, COO, manufacturer, warnings</text>
    <rect x="938" y="416" width="128" height="34" rx="17" fill="#dcfce7"/>
    <text x="966" y="439" fill="#166534" font-size="14" font-weight="700">Matched</text>
    <rect x="102" y="488" width="1028" height="70" rx="18" fill="#ffffff" stroke="#e5e7eb"/>
    <text x="130" y="530" fill="#111827">6971********</text>
    <text x="320" y="530" fill="#111827">Tint product</text>
    <text x="622" y="530" fill="#475569">Ingredients review needed</text>
    <rect x="938" y="506" width="150" height="34" rx="17" fill="#fef3c7"/>
    <text x="962" y="529" fill="#92400e" font-size="14" font-weight="700">Needs review</text>
    <rect x="102" y="578" width="1028" height="70" rx="18" fill="#ffffff" stroke="#e5e7eb"/>
    <text x="130" y="620" fill="#111827">4973********</text>
    <text x="320" y="620" fill="#111827">Sheet mask</text>
    <text x="622" y="620" fill="#475569">Reference source attached</text>
    <rect x="938" y="596" width="128" height="34" rx="17" fill="#dbeafe"/>
    <text x="969" y="619" fill="#1d4ed8" font-size="14" font-weight="700">Ready</text>
  </g>
</svg>
