<svg xmlns="http://www.w3.org/2000/svg" width="1280" height="760" viewBox="0 0 1280 760" role="img" aria-label="Sanitized preview of a monthly planning calendar">
  <rect width="1280" height="760" fill="#f7f7f5"/>
  <rect x="64" y="54" width="1152" height="652" rx="34" fill="#ffffff" stroke="#dedbd2"/>
  <text x="112" y="120" fill="#111827" font-family="Arial, Helvetica, sans-serif" font-size="36" font-weight="700">Monthly Planning Calendar</text>
  <text x="112" y="158" fill="#64748b" font-family="Arial, Helvetica, sans-serif" font-size="18">Turning analysis outputs into campaign, PO, and replenishment actions</text>
  <g font-family="Arial, Helvetica, sans-serif">
    <g fill="#64748b" font-size="15" font-weight="700">
      <text x="128" y="228">MON</text><text x="284" y="228">TUE</text><text x="440" y="228">WED</text><text x="596" y="228">THU</text><text x="752" y="228">FRI</text><text x="908" y="228">SAT</text><text x="1064" y="228">SUN</text>
    </g>
    <g stroke="#e5e7eb" fill="#fbfaf7">
      <rect x="112" y="250" width="148" height="110" rx="18"/><rect x="268" y="250" width="148" height="110" rx="18"/><rect x="424" y="250" width="148" height="110" rx="18"/><rect x="580" y="250" width="148" height="110" rx="18"/><rect x="736" y="250" width="148" height="110" rx="18"/><rect x="892" y="250" width="148" height="110" rx="18"/><rect x="1048" y="250" width="148" height="110" rx="18"/>
      <rect x="112" y="378" width="148" height="110" rx="18"/><rect x="268" y="378" width="148" height="110" rx="18"/><rect x="424" y="378" width="148" height="110" rx="18"/><rect x="580" y="378" width="148" height="110" rx="18"/><rect x="736" y="378" width="148" height="110" rx="18"/><rect x="892" y="378" width="148" height="110" rx="18"/><rect x="1048" y="378" width="148" height="110" rx="18"/>
      <rect x="112" y="506" width="148" height="110" rx="18"/><rect x="268" y="506" width="148" height="110" rx="18"/><rect x="424" y="506" width="148" height="110" rx="18"/><rect x="580" y="506" width="148" height="110" rx="18"/><rect x="736" y="506" width="148" height="110" rx="18"/><rect x="892" y="506" width="148" height="110" rx="18"/><rect x="1048" y="506" width="148" height="110" rx="18"/>
    </g>
    <rect x="132" y="292" width="108" height="26" rx="13" fill="#dbeafe"/>
    <text x="148" y="311" fill="#1d4ed8" font-size="13" font-weight="700">PO review</text>
    <rect x="444" y="292" width="108" height="26" rx="13" fill="#dcfce7"/>
    <text x="458" y="311" fill="#166534" font-size="13" font-weight="700">Restock</text>
    <rect x="600" y="420" width="108" height="26" rx="13" fill="#ffedd5"/>
    <text x="616" y="439" fill="#c2410c" font-size="13" font-weight="700">Promo plan</text>
    <rect x="756" y="548" width="108" height="26" rx="13" fill="#fce7f3"/>
    <text x="775" y="567" fill="#be185d" font-size="13" font-weight="700">Launch</text>
    <rect x="912" y="548" width="108" height="26" rx="13" fill="#ede9fe"/>
    <text x="928" y="567" fill="#6d28d9" font-size="13" font-weight="700">BA follow-up</text>
  </g>
</svg>
